<?xml version="1.0" standalone="no"?>
<!DOCTYPE svg PUBLIC "-//W3C//DTD SVG 20010904//EN"
 "http://www.w3.org/TR/2001/REC-SVG-20010904/DTD/svg10.dtd">
<svg version="1.0" xmlns="http://www.w3.org/2000/svg"
 width="100.000000pt" height="100.000000pt" viewBox="0 0 100.000000 100.000000"
 preserveAspectRatio="xMidYMid meet">

<g transform="translate(0.000000,100.000000) scale(0.100000,-0.100000)"
fill="#000000" stroke="none">
<path d="M292 740 c-83 -51 -94 -150 -23 -214 19 -17 21 -30 21 -138 l0 -118
225 0 225 0 0 183 c0 188 -4 207 -41 207 -10 0 -20 6 -22 13 -4 10 -6 10 -6 0
-1 -7 -10 -13 -20 -13 -11 0 -22 6 -24 13 -4 10 -6 10 -6 0 -1 -7 -10 -13 -20
-13 -11 0 -22 6 -24 13 -4 10 -6 10 -6 0 -1 -7 -10 -13 -20 -13 -11 0 -22 6
-24 13 -4 10 -6 10 -6 0 -2 -24 -36 -13 -53 17 -21 37 -74 70 -113 70 -16 0
-45 -9 -63 -20z m145 -32 c64 -60 34 -174 -51 -197 -85 -22 -168 59 -145 143
25 88 129 117 196 54z m84 -75 c1 -17 2 -17 6 0 2 9 13 17 24 17 11 0 19 -7
20 -17 1 -17 2 -17 6 0 2 9 13 17 24 17 11 0 19 -7 20 -17 1 -17 2 -17 6 0 2
9 13 17 24 17 11 0 19 -7 20 -17 1 -17 2 -17 6 0 2 9 10 17 18 17 31 0 36 -27
33 -196 l-3 -169 -210 0 -210 0 -3 105 -3 105 56 0 c53 0 59 2 96 42 30 33 39
50 39 78 0 24 4 35 15 35 8 0 16 -8 16 -17z"/>
<path d="M352 693 c-1 -23 -6 -45 -12 -48 -16 -10 -12 -35 8 -42 9 -3 25 -13
35 -21 22 -20 35 -8 16 15 -23 28 -38 65 -42 103 -4 33 -4 33 -5 -7z"/>
</g>
</svg>
